<?xml version="1.0" standalone="no"?>
<!DOCTYPE svg PUBLIC "-//W3C//DTD SVG 20010904//EN"
 "http://www.w3.org/TR/2001/REC-SVG-20010904/DTD/svg10.dtd">
<svg version="1.0" xmlns="http://www.w3.org/2000/svg"
 width="560.000000pt" height="560.000000pt" viewBox="0 0 560.000000 560.000000"
 preserveAspectRatio="xMidYMid meet">
<metadata>
Created by potrace 1.11, written by Peter Selinger 2001-2013
</metadata>
<g transform="translate(0.000000,560.000000) scale(0.100000,-0.100000)"
fill="#000000" stroke="none">
<path d="M5 5388 c7 -72 15 -180 20 -255 2 -34 7 -90 10 -125 4 -34 9 -88 11
-118 3 -30 7 -80 9 -110 3 -30 7 -89 11 -130 3 -41 7 -91 9 -110 1 -19 3 -40
4 -47 1 -11 21 -17 96 -28 22 -3 47 -7 55 -10 8 -2 35 -6 60 -9 25 -4 56 -8
70 -11 14 -2 41 -7 60 -9 19 -3 49 -8 65 -11 17 -4 44 -8 60 -10 17 -2 73 -11
125 -20 52 -9 109 -18 125 -20 17 -2 41 -6 55 -9 14 -2 59 -10 100 -16 41 -6
86 -14 100 -16 14 -2 41 -7 60 -10 67 -11 205 -33 230 -38 14 -2 43 -7 65 -10
49 -7 101 -16 135 -22 26 -5 55 -9 125 -19 22 -3 50 -7 61 -9 12 -2 39 -7 60
-10 22 -4 77 -13 125 -21 47 -8 98 -17 115 -19 42 -6 103 -15 144 -22 19 -4
44 -8 55 -9 26 -4 84 -13 111 -19 22 -4 54 -10 137 -21 26 -4 47 -11 47 -14 0
-4 -6 -8 -12 -8 -21 0 -151 -13 -178 -18 -14 -2 -56 -7 -95 -10 -38 -3 -81 -7
-95 -9 -14 -3 -56 -7 -95 -11 -38 -3 -88 -8 -110 -10 -22 -3 -62 -7 -90 -10
-27 -3 -75 -8 -105 -10 -30 -3 -68 -7 -85 -10 -16 -2 -61 -7 -100 -11 -38 -3
-81 -8 -95 -9 -14 -2 -56 -6 -95 -10 -38 -3 -81 -8 -95 -10 -22 -4 -100 -12
-193 -20 -15 -1 -30 -5 -33 -7 -5 -6 -11 -59 -19 -188 -3 -52 -8 -115 -10
-140 -2 -25 -7 -83 -10 -130 -3 -47 -7 -119 -10 -160 -3 -41 -7 -111 -10 -155
-2 -44 -7 -120 -10 -170 -3 -49 -8 -153 -10 -230 -2 -77 -4 -144 -5 -150 -7
-32 7 -45 103 -93 95 -48 192 -90 227 -97 8 -2 27 -8 43 -14 15 -6 27 -8 27
-5 0 4 6 2 13 -4 7 -6 24 -13 37 -16 14 -3 76 -19 138 -35 62 -17 125 -32 140
-35 15 -2 27 -5 27 -6 0 -2 16 -5 60 -14 41 -8 66 -13 95 -20 28 -7 71 -15
115 -22 17 -3 37 -7 45 -10 8 -3 31 -8 50 -10 19 -3 85 -14 147 -24 61 -11
131 -23 155 -26 23 -3 52 -7 63 -9 11 -2 67 -10 125 -19 154 -23 182 -27 215
-30 43 -5 146 -17 175 -22 59 -9 98 -14 150 -19 30 -3 69 -7 85 -9 17 -2 62
-7 100 -11 39 -4 84 -9 100 -11 28 -3 85 -8 195 -19 25 -2 64 -5 88 -6 23 -2
42 -6 42 -9 0 -5 -111 -29 -215 -46 -16 -2 -43 -7 -60 -11 -16 -4 -39 -8 -50
-9 -40 -5 -85 -13 -102 -18 -10 -3 -35 -7 -55 -10 -21 -3 -58 -10 -83 -16 -26
-6 -50 -8 -55 -5 -5 3 -11 1 -14 -4 -3 -5 -29 -12 -58 -16 -29 -4 -60 -8 -68
-10 -8 -2 -33 -6 -55 -10 -22 -4 -85 -15 -140 -25 -55 -10 -116 -22 -135 -25
-127 -22 -145 -26 -160 -30 -8 -2 -31 -6 -50 -9 -19 -3 -44 -7 -55 -10 -23 -4
-101 -18 -130 -22 -11 -2 -31 -5 -45 -9 -14 -3 -36 -7 -50 -9 -14 -3 -45 -8
-70 -12 -25 -4 -49 -8 -55 -9 -13 0 -9 -57 14 -185 5 -30 12 -71 16 -90 3 -19
13 -69 22 -110 8 -41 17 -82 18 -90 1 -8 5 -26 8 -40 4 -14 18 -77 32 -140 15
-63 28 -119 29 -125 2 -5 7 -23 11 -40 21 -78 110 -174 235 -255 41 -27 81
-54 88 -60 6 -6 12 -9 12 -6 0 3 39 -15 88 -39 91 -45 144 -68 277 -117 87
-32 386 -127 423 -134 13 -3 49 -12 80 -20 63 -17 93 -25 196 -48 38 -9 78
-18 90 -21 26 -7 19 -1 -69 64 -33 25 -62 47 -65 50 -3 3 -12 11 -22 16 -22
13 -157 117 -188 145 -14 12 -41 34 -60 49 -63 47 -162 150 -158 163 6 17 21
16 93 -7 124 -40 362 -18 615 56 36 11 90 27 120 35 236 67 858 297 1108 410
29 13 54 24 57 24 5 0 324 140 390 171 l50 24 1 75 c1 41 5 154 9 250 4 96 9
204 10 240 1 36 6 126 10 200 4 74 8 164 10 200 13 246 24 408 30 439 3 18 -3
19 -68 18 -77 0 -186 11 -267 28 -14 3 -41 8 -60 10 -19 3 -46 8 -60 11 -14 3
-36 8 -50 10 -14 3 -41 9 -60 14 -19 5 -51 11 -70 14 -19 3 -60 12 -92 20 -31
8 -67 18 -80 20 -75 17 -199 46 -238 56 -25 6 -53 13 -63 15 -10 2 -27 7 -37
10 -10 3 -27 8 -37 10 -10 2 -88 22 -173 45 -85 22 -162 42 -170 44 -8 2 -35
9 -60 16 -25 7 -52 14 -60 16 -103 25 -250 69 -250 73 0 5 585 156 685 177 29
7 425 105 455 114 19 5 54 14 77 20 37 9 43 15 44 38 0 15 2 54 4 87 1 33 6
130 9 215 4 85 9 198 11 250 2 52 7 156 10 230 4 74 8 169 10 210 2 41 6 149
10 240 3 91 8 203 10 250 13 287 14 320 4 325 -5 4 -127 8 -272 10 -323 5
-893 14 -1292 20 -165 3 -439 7 -610 10 -595 9 -922 14 -1255 20 -184 3 -465
8 -625 10 -159 3 -444 7 -632 10 l-343 5 5 -52z"/>
</g>
</svg>
