<?xml version="1.0" standalone="no"?>
<!DOCTYPE svg PUBLIC "-//W3C//DTD SVG 20010904//EN"
 "http://www.w3.org/TR/2001/REC-SVG-20010904/DTD/svg10.dtd">
<svg version="1.0" xmlns="http://www.w3.org/2000/svg"
 width="560.000000pt" height="560.000000pt" viewBox="0 0 560.000000 560.000000"
 preserveAspectRatio="xMidYMid meet">
<metadata>
Created by potrace 1.11, written by Peter Selinger 2001-2013
</metadata>
<g transform="translate(0.000000,560.000000) scale(0.100000,-0.100000)"
fill="#000000" stroke="none">
<path d="M4 5413 c3 -16 22 -228 42 -473 20 -245 39 -448 43 -452 3 -3 555
-95 1226 -203 671 -108 1225 -197 1230 -199 6 -2 3 -6 -5 -9 -8 -3 -346 -40
-750 -82 -404 -42 -738 -80 -742 -83 -13 -13 -74 -948 -80 -1232 l-3 -125 110
-55 c360 -181 1210 -349 2332 -461 306 -30 360 -37 338 -45 -5 -2 -397 -73
-870 -159 -472 -86 -861 -158 -864 -160 -21 -21 137 -773 180 -856 87 -171
407 -350 899 -502 156 -49 550 -150 557 -143 2 2 -25 24 -60 49 -135 97 -345
264 -419 335 -110 105 -104 134 17 92 108 -37 297 -24 540 36 373 94 966 312
1581 583 l210 93 12 287 c17 382 50 1012 58 1082 l6 55 -58 -4 c-157 -10 -787
125 -1592 342 -134 36 -245 66 -247 66 -3 0 -5 4 -5 9 0 5 286 80 635 167
l635 159 1 75 c0 41 17 452 37 914 25 555 34 839 27 841 -5 2 -341 8 -745 14
-2060 31 -3897 61 -4078 66 l-204 6 6 -28z"/>
</g>
</svg>
